<?xml version="1.0" encoding="UTF-8"?>
<svg id="Layer_1" data-name="Layer 1" xmlns="http://www.w3.org/2000/svg" viewBox="0 0 1321.83 528.35">
  <defs>
    <style>
      .cls-1 {
        fill: #07d66b;
      }

      .cls-2 {
        fill: #0bd66b;
      }

      .cls-3 {
        fill: #301754;
      }
    </style>
  </defs>
  <g>
    <g>
      <path class="cls-3" d="M167.52,174.61c10.41-4.2,19.11-10.85,25.87-19.78,6.84-9.04,10.31-20.63,10.31-34.44,0-5.62-1.14-11.01-3.4-16.01-2.24-4.95-5.32-9.32-9.16-13-3.83-3.67-8.43-6.62-13.68-8.77-5.26-2.15-10.97-3.24-17-3.24h-46.3c-2.01,0-3.95.75-5.61,2.18-1.59,1.37-2.64,3.02-3.14,5.03l-31.07,145.42c-.56,2.26-.07,4.46,1.38,6.2,1.42,1.7,3.35,2.6,5.59,2.6h22.05c2.01,0,3.95-.75,5.61-2.18,1.59-1.36,2.63-3.01,3.14-5.04l11.56-54.53h5.07c.04.1.06.17.07.19l18.15,54.71c.6,1.8,1.44,3.3,2.5,4.46,1.43,1.57,3.57,2.37,6.37,2.37h20.95c4.21,0,6.51-1.92,7.7-3.54,1.71-2.33,2.12-5.11,1.14-7.83l-18.96-52.04c-.31-.86-.43-1.6-.35-2.14.11-.1.43-.34,1.16-.62l.05-.02ZM164.86,126.79c0,1.97-.39,3.74-1.19,5.41-.84,1.74-1.96,3.29-3.34,4.61-1.37,1.31-3.01,2.37-4.88,3.15-1.86.78-3.82,1.16-6.02,1.16h-17.5l4.96-23.79h19.15c3.27,0,5.46.77,6.67,2.36,1.44,1.89,2.14,4.21,2.14,7.11Z"/>
      <path class="cls-3" d="M307.93,116.22c2.01,0,3.95-.75,5.61-2.18,1.59-1.36,2.64-3.02,3.14-5.01l4.61-20.86c.56-2.26.08-4.46-1.38-6.22-1.42-1.69-3.35-2.59-5.58-2.59h-79.38c-2.01,0-3.95.75-5.61,2.17-1.6,1.37-2.64,3.02-3.14,5.01l-4.61,20.85c-.57,2.27-.08,4.48,1.37,6.21,1.41,1.7,3.35,2.6,5.59,2.6h19.91s-18.62,87.74-18.62,87.74h-23.57c-2.01,0-3.95.75-5.61,2.17-1.6,1.37-2.65,3.02-3.15,5.05l-4.38,20.81c-.56,2.22-.16,4.32,1.15,6.08,1.32,1.77,3.31,2.74,5.59,2.74h83.79c2.01,0,3.95-.75,5.61-2.18,1.59-1.36,2.64-3.01,3.14-5.01l4.61-20.85c.57-2.26.08-4.47-1.38-6.22-1.42-1.7-3.35-2.6-5.58-2.6h-22.12s18.62-87.74,18.62-87.74h21.36Z"/>
      <path class="cls-3" d="M438,129.53c.63-7.06-.06-13.73-2.03-19.82-2-6.16-5.25-11.56-9.66-16.05-4.38-4.45-9.88-7.99-16.34-10.52-6.42-2.5-13.82-3.77-22.01-3.77h-37.93c-2.73,0-5.22.89-7.41,2.66-2.21,1.79-3.56,4.09-4.01,6.84l-29.96,140.97c-.86,3.71.29,6.23,1.41,7.69,1.14,1.49,3.3,3.26,7.11,3.26h45.87c8.91,0,16.85-1.26,23.6-3.75,6.79-2.49,12.7-5.99,17.58-10.4,4.82-4.35,8.95-9.59,12.29-15.56,3.25-5.81,6.05-12.21,8.33-19.05,1.48-4.59,2.94-9.62,4.35-14.96,1.39-5.28,2.71-10.75,3.9-16.25,1.18-5.48,2.2-10.93,3.02-16.19.82-5.31,1.46-10.38,1.9-15.11ZM399.86,128.88c-.43,4.58-1.05,9.51-1.85,14.67-.79,5.1-1.78,10.41-2.94,15.78-1.16,5.38-2.45,10.74-3.82,15.94-1.39,5.24-2.81,10.15-4.24,14.56-1.38,4.14-3.68,7.27-7.02,9.56-3.35,2.3-8.31,3.46-14.76,3.46h-12.87l18.11-85.07c.05-.22.1-.36.13-.43.07-.01.19-.03.37-.03h14.77c5.69,0,9.79,1.06,11.86,3.08,1.97,1.92,2.71,4.67,2.26,8.49Z"/>
      <path class="cls-3" d="M565.21,81.96c-1.42-1.7-3.35-2.59-5.58-2.59h-84.45c-2.01,0-3.95.75-5.61,2.18-1.59,1.36-2.64,3.02-3.14,5.04l-30.84,145.4c-.56,2.22-.16,4.33,1.15,6.07,1.32,1.77,3.31,2.74,5.59,2.74h85.33c2.01,0,3.95-.75,5.61-2.18,1.59-1.36,2.63-3.01,3.13-5.01l4.83-21.95c.56-2.26.08-4.47-1.38-6.21-1.42-1.7-3.35-2.59-5.58-2.59h-54.54s4.96-23.79,4.96-23.79h53.55c2.04,0,3.92-.73,5.61-2.18,1.59-1.36,2.64-3.02,3.14-5.05l4.6-21.92c.56-2.26.07-4.46-1.38-6.21-1.42-1.69-3.35-2.59-5.58-2.59h-51.67l4.96-23.79h55.1c2.01,0,3.95-.75,5.61-2.18,1.59-1.37,2.64-3.02,3.13-5.01l4.83-21.95c.57-2.26.08-4.46-1.38-6.22Z"/>
    </g>
    <g>
      <path class="cls-2" d="M903.74,83.18c-.46-1.22-2.02-4.07-6.63-4.07h-24.34c-3.6,0-6.46,1.9-8.07,5.36l-44.06,98.86-2.08-97.37c0-4.17-2.78-6.86-7.08-6.86h-22.12c-3.65,0-5.72,1.73-6.82,3.19-1.35,1.8-2.03,3.71-2.03,5.78l4.87,146.13c0,4.17,2.78,6.86,7.08,6.86h33.41c3.36,0,6.2-1.84,7.99-5.19l69.52-146.33c1.03-2.06,1.16-4.26.37-6.36Z"/>
      <path class="cls-2" d="M998.65,92.33c-4.39-4.86-9.9-8.73-16.4-11.5-6.47-2.76-13.93-4.16-22.19-4.16-9.12,0-17.16,1.39-23.9,4.13-6.75,2.75-12.64,6.57-17.52,11.37-4.81,4.73-8.93,10.26-12.25,16.44-3.25,6.05-6.05,12.56-8.3,19.33-1.64,4.76-3.15,9.88-4.51,15.21-1.34,5.27-2.61,10.71-3.79,16.16-1.19,5.5-2.21,11.01-3.03,16.36-.82,5.36-1.46,10.41-1.9,14.97-.79,7.07-.27,13.85,1.55,20.18,1.83,6.37,4.9,12.07,9.14,16.94,4.25,4.9,9.79,8.79,16.47,11.57,6.61,2.75,14.36,4.14,23.04,4.14s16.96-1.39,23.78-4.13c6.82-2.74,12.75-6.57,17.64-11.38,4.8-4.73,8.93-10.26,12.25-16.44,3.25-6.05,6.05-12.57,8.33-19.4,1.49-4.62,2.96-9.67,4.37-15.01,1.39-5.28,2.71-10.76,3.91-16.31,1.19-5.49,2.2-10.95,3.03-16.25.82-5.31,1.46-10.41,1.91-15.16.63-7.07-.06-13.85-2.03-20.18-1.99-6.36-5.22-12.05-9.6-16.91ZM972.03,128.78c-.43,4.57-1.05,9.52-1.85,14.72-.8,5.16-1.79,10.48-2.95,15.84-1.17,5.39-2.46,10.77-3.83,15.99-1.38,5.23-2.82,10.16-4.25,14.61-1.44,4.31-3.85,7.89-7.38,10.95-3.3,2.87-8.17,4.33-14.49,4.33-5.63,0-9.55-1.31-11.63-3.89-2.2-2.71-3.03-5.93-2.55-9.93.44-4.53,1.06-9.45,1.86-14.63.79-5.21,1.78-10.57,2.95-15.94,1.16-5.36,2.41-10.71,3.73-15.92,1.3-5.12,2.76-10.05,4.35-14.68,1.42-4.26,3.92-7.82,7.63-10.89,3.59-2.96,8.24-4.39,14.23-4.39,5.63,0,9.54,1.31,11.63,3.88,2.2,2.72,3.03,5.94,2.55,9.95Z"/>
      <path class="cls-2" d="M1128.57,114.98c1.59-1.37,2.64-3.02,3.14-5.02l4.84-22.02c.57-2.26.08-4.47-1.38-6.23-1.42-1.7-3.35-2.6-5.59-2.6h-99.56c-2.04,0-3.94.73-5.62,2.18-1.6,1.37-2.65,3.03-3.14,5.02l-4.84,22.02c-.57,2.27-.08,4.48,1.38,6.22,1.42,1.7,3.35,2.6,5.6,2.6h31.06s-24.53,115.07-24.53,115.07c-.57,2.27-.08,4.48,1.38,6.23,1.42,1.7,3.35,2.6,5.6,2.6h22.12c2.01,0,3.95-.75,5.63-2.18,1.59-1.37,2.64-3.03,3.14-5.04l24.88-116.67h30.29c2.04,0,3.93-.73,5.62-2.18Z"/>
      <path class="cls-2" d="M1246.11,81.7c-1.42-1.7-3.35-2.6-5.59-2.6h-84.74c-2.02,0-3.96.75-5.62,2.18-1.6,1.37-2.65,3.03-3.15,5.05l-30.94,145.89c-.56,2.23-.16,4.33,1.15,6.09,1.33,1.77,3.31,2.74,5.59,2.74h85.62c2.04,0,3.93-.73,5.63-2.18,1.59-1.37,2.64-3.02,3.14-5.02l4.84-22.03c.56-2.26.07-4.47-1.38-6.22-1.42-1.7-3.35-2.6-5.59-2.6h-54.74s4.98-23.9,4.98-23.9h53.74c2.04,0,3.93-.73,5.62-2.18,1.59-1.37,2.64-3.03,3.15-5.06l4.62-22c.56-2.26.07-4.47-1.39-6.22-1.42-1.7-3.35-2.59-5.59-2.59h-51.86l4.98-23.9h55.29c2.04,0,3.93-.73,5.62-2.18,1.6-1.37,2.64-3.02,3.14-5.02l4.85-22.03c.56-2.26.08-4.47-1.38-6.22Z"/>
    </g>
    <g>
      <path class="cls-3" d="M666.95,132.99l2.64-12.03c.46-1.84.06-3.64-1.13-5.06-1.13-1.35-2.73-2.1-4.5-2.1h-54.6c-1.56,0-3.05.57-4.3,1.64-1.16.99-1.96,2.26-2.34,3.77l-2.64,12.02c-.47,1.84-.06,3.65,1.13,5.07,1.13,1.36,2.73,2.1,4.51,2.1h14.72l-12.96,60.78c-.47,1.84-.06,3.65,1.13,5.06,1.13,1.36,2.73,2.1,4.51,2.1h12.13c1.56,0,3.04-.57,4.3-1.65,1.18-1.01,1.95-2.24,2.34-3.8l13.33-62.51h15.1c1.55,0,3.04-.57,4.3-1.65,1.17-1.01,1.95-2.24,2.33-3.77Z"/>
      <path class="cls-3" d="M733.21,131.64c-1.17-3.75-3.08-7.1-5.66-9.97-2.59-2.87-5.83-5.15-9.65-6.78-3.78-1.61-8.12-2.43-12.9-2.43-5.24,0-9.89.81-13.81,2.41-3.93,1.6-7.36,3.83-10.22,6.64-2.77,2.73-5.14,5.91-7.05,9.47-1.83,3.41-3.41,7.08-4.67,10.88-.92,2.67-1.77,5.53-2.52,8.49-.73,2.88-1.44,5.89-2.1,8.93-.66,3.07-1.23,6.12-1.68,9.09-.45,2.97-.81,5.77-1.05,8.28-.46,4.12-.15,8.08.91,11.79,1.08,3.76,2.89,7.12,5.4,10,2.52,2.91,5.79,5.21,9.72,6.84,3.85,1.6,8.34,2.42,13.36,2.42s9.78-.81,13.74-2.4c3.97-1.6,7.44-3.83,10.29-6.64,2.77-2.72,5.14-5.9,7.06-9.47,1.83-3.41,3.41-7.08,4.7-10.95.82-2.55,1.64-5.36,2.42-8.33.77-2.94,1.5-5.97,2.16-9.02.66-3.05,1.22-6.08,1.68-9.02.45-2.94.81-5.77,1.06-8.44.37-4.12-.03-8.09-1.19-11.79ZM709.7,142.74c-.23,2.48-.57,5.16-1,7.96-.44,2.81-.97,5.7-1.6,8.58-.63,2.93-1.33,5.85-2.08,8.69-.75,2.84-1.53,5.51-2.3,7.9-.68,2.04-1.82,3.73-3.5,5.19-1.46,1.27-3.72,1.91-6.72,1.91-1.72,0-3.97-.25-4.93-1.44-.88-1.09-1.2-2.36-.99-4.09.24-2.43.57-5.09,1.01-7.92.43-2.82.97-5.72,1.6-8.63.63-2.9,1.31-5.82,2.03-8.67.7-2.77,1.49-5.42,2.35-7.92.66-1.99,1.84-3.67,3.6-5.12,1.62-1.33,3.78-1.98,6.62-1.98,1.72,0,3.96.25,4.92,1.44.88,1.09,1.2,2.36.99,4.11Z"/>
    </g>
  </g>
  <g>
    <rect class="cls-3" x="209.71" y="403.15" width="906.1" height="14"/>
    <g>
      <circle class="cls-1" cx="209.71" cy="410.15" r="21.5"/>
      <circle class="cls-1" cx="1115.81" cy="410.15" r="21.5"/>
    </g>
  </g>
  <circle class="cls-1" cx="795.44" cy="409.15" r="42.51"/>
  <g>
    <path class="cls-3" d="M773.83,426.53c-.07.07-.17.11-.24.14-.12.07-.33.1-.29.33l-.06.02c-.11.04-.23.04-.34.06-.04-.06-.11-.03-.12,0-.04.09-.15.13-.23.16-.4.1-.76.29-1.17.37-.11.02-.22-.01-.36.01-.33.08-.65.15-.98.15-.07,0-.13.05-.14-.04-.02-.06-.07-.12-.01-.17.04-.02.06-.04.07-.07.03-.04.05-.07.01-.1-.04-.03-.09-.04-.1,0-.05.07-.11.09-.15.11-.13.05-.25-.03-.39-.07-.12-.08-.18-.22-.25-.34-.12-.32-.38-.56-.6-.82-.13-.17-.33-.29-.46-.46-.1-.08-.27-.07-.32-.22-.21-.04-.27-.26-.37-.39-.14-.17-.21-.36-.36-.5-.11-.17-.27-.26-.42-.4-.13-.1-.18-.29-.4-.29,0,0-.02,0-.03-.01,0-.41-.36-.44-.58-.63-.13-.1-.13-.22-.21-.31-.15-.28-.33-.55-.58-.77-.25-.22-.51-.46-.71-.75,0-.02-.06-.03-.09-.06-.1-.01-.17-.08-.19-.17l-.02-.04c-.03-.08-.12-.07-.18-.1-.06-.03-.13-.02-.12-.12,0-.05-.01-.09-.06-.15-.06-.1-.17.06-.23-.03-.05-.06.05-.14-.05-.2-.16-.11-.31-.25-.42-.42-.02-.04-.14-.04-.15-.07-.04-.06.1-.06.08-.12-.11-.17-.24-.37-.42-.42-.16-.04-.21-.11-.19-.24,0-.05-.01-.09-.03-.13s-.06-.1-.14-.12c0-.02-.05,0-.07,0-.09-.04,0,.17-.14.08-.03-.01-.05-.13-.06-.17-.02-.04-.03-.08-.08-.09-.14-.05-.22-.13-.16-.3-.02-.04-.06-.1-.12-.12-.02.08-.07.07-.13.05-.04-.06-.09-.06-.08-.16.01-.1-.01-.16-.04-.25-.05-.13-.14-.24-.27-.28-.12,0-.2-.07-.23-.16l-.21-.38c-.09-.11-.26-.19-.4-.31-.1-.06-.18-.15-.24-.32l-.02-.04c-.05-.13-.21-.24-.39-.26l-.09-.25c-.06-.15-.12-.27-.2-.41-.04-.04-.05-.08-.12,0-.09.08-.07-.07-.15-.09-.05,0,0-.07,0-.07.07-.07.12-.14.17-.21.01-.22.02-.2.21-.27.16-.08.36-.13.53-.2.08-.03.17-.06.25-.12.06-.05.12-.07.16-.09.21-.08.43-.06.63-.19.17-.13.38-.14.51-.31.03-.06.08-.03.16-.04.1,0,.19,0,.3-.04.11-.04.2-.12.28-.23.05-.07.08-.1.15-.13.04-.02.09-.01.17.06.07.07.15.02.19-.07,0-.05.03-.11.07-.14l.07.19c.05.08.09.23.21.04.14.04.25.08.39.07.05,0,.1.13.17-.01.01-.03.06.03.07.05.09.11.23.16.28.3.02.04.07.05.12.05l.08.02s.02.04.02.04c.07.19.33.24.39.41.03.08-.02.2.11.3.04.04.07.12.14.12.06-.02.12,0,.09.04-.05.07-.05.12-.04.16.03.08.17.06.24.05.11.03.23-.04.13.17.08.02.12.07.15.14.04.11.05.2.12.27.1.06.18.17.27.26.04.03.27.02.08.16-.01.03.02.06.02.06.24.06.3.22.37.42.1.2.24.37.41.52,0,.02.05.08-.01.1-.02,0-.03-.01-.06-.03.08.14.13.29.33.17.06-.02.12.05.09.11-.04.09-.04.14-.02.2.03.09.15.14.22.21.04.04.17,0,.08.14,0,.05.16-.04.19.05.02.06.09.11.15.14,0,.02.03.01.04.03.03.09-.1.25.03.28.15.07.2.14.22.26,0,.05.03.08.08.09q.11.03.03.16c.21.11.32.34.45.56.04.04.04.11.12.12.18.03.22.06,0,.14-.04.02-.03.06,0,.09.22.06.2.34.39.41,0,0,.03.01.04.03l.04.11c.08.21.3.35.39.53.04.03.02.06.03.08,0,.05-.02.08,0,.12.02.06.09.11.14.17.3.28.54.6.8.91.19.24.39.53.66.72.2.14.38.32.49.54.24.39.6.69.97.97.1.08.14.24.25.29.3.22.62.42.79.74.02.04.05.08.05.08.21-.08.21.16.33.24.04.06.11.15.21.18.11.03.11.1.03.16ZM763.56,421.17h.02s-.01.02-.02,0ZM763.66,414.13s0-.07.04-.09c.05,0,.08.02.09.04.02.04-.03.06-.07.07-.02,0-.05,0-.06-.03ZM765.72,416.4s-.02-.04.02-.08c0,.02.03.01.04.04s.02.04,0,.05c-.02,0-.04.02-.05,0ZM766.26,417.07s0-.02.01-.03c0,.02,0,.05,0,.05,0,0-.02,0,0-.02ZM766.88,418.09s-.03-.01-.05,0c-.02-.04,0-.07.01-.1,0,0,.04.03.06.03.02.04,0,.07-.02.08ZM775.01,409.87c.03.08,0,.17-.06.24l-.09.08s0-.05,0-.07c-.02-.04-.02-.06-.07-.07-.03-.01-.05,0-.04.02-.03.04.01.09.06.1,0,.02.03.01.06.03.05.05.18.1.05.2-.07.07-.08.17-.12.26.02.06.07.12.08.16.02.06,0,.12-.12.19-.06.04-.06.09-.04.16t.04.03c.05.13,0,.29-.02.39-.02.08-.02.15.02.24.02.04.02.06-.05.07-.15-.02-.13.1-.08.17.04.03.04.06.05.08.03.08.03.14-.03.23-.1.11-.08.22-.08.37,0,.26.03.54-.02.85-.03.3-.07.65-.09,1,.02.19,0,.32-.07.46-.09.13-.2.32.02.45-.05.14,0,.24.03.35-.14.08.1.28-.1.33.06.22-.16.4-.08.61.02.04,0,.09,0,.17-.1.13-.08.3-.09.47.03.13-.03.25.11.35.04.06,0,.12-.03.18-.16.23-.14.46-.08.68.03.08.04.11.12.05.04-.02.07-.07.11-.04.02.04,0,.07-.01.1-.01.03-.02.08-.04.09-.23.09-.13.29-.17.45-.05,0-.12-.07-.11.04l.11-.04s.03.01.03.01c.06.15-.03.3.04.42-.12.07-.12.14-.03.23v.02c-.2.15.04.42-.13.58-.04.02-.04.09-.02.13.06.41.09.81,0,1.23.01.09.04.18.03.28.01.09.03.21-.07.27-.04.04-.02.08-.02.15-.01.29-.05.57-.05.89-.04.16-.1.25-.26.27-.1-.08-.16-.18-.29-.21-.08-.02-.12-.08-.18-.15-.17-.25-.35-.5-.62-.69-.13-.09-.25-.22-.35-.35-.3-.35-.69-.61-.96-.95-.1-.13-.24-.2-.35-.3-.07-.05-.17,0-.18-.1,0-.12-.04-.23.01-.29.06-.09.06-.17.04-.21-.02-.06-.07-.12-.15-.14-.07-.07-.13-.15-.16-.23-.12-.32.02-.73-.2-1.04,0-.02-.02-.06,0-.07.04-.16-.02-.31-.01-.43-.04-.16-.03-.33-.06-.49-.02-.06,0-.14-.05-.2-.03-.01-.04-.06-.05-.08-.07-.19,0-.41,0-.63,0-.05.03-.11-.01-.17l-.08-.14c-.05-.13-.02-.31.03-.42.05-.14.03-.25,0-.39-.03-.08-.09-.18.03-.25v-.05s-.07-.07-.08-.11c-.05-.13.04-.28,0-.41-.04-.03-.08-.02-.12,0,.02-.27,0-.58.05-.84.01-.1-.03-.16-.06-.22l.05-.12c.02-.08.02-.15-.1-.13-.14.02-.11-.03-.05-.13l.07-.27c0-.1,0-.17-.13-.15-.06.02-.07,0-.05-.06.03-.06.05-.12.1-.18.05-.12.03-.25-.12-.25-.15-.02-.11-.03-.06-.1.02-.08.08-.1.13-.17.1-.11.12-.19,0-.34-.07-.07-.07-.12.05-.12.05,0,.1.01.08-.05t0-.05c-.04-.11,0-.21,0-.32,0-.02.02-.08.02-.08-.06-.03-.09-.06-.11-.1-.05-.13.05-.26.05-.38-.04-.11,0-.24.08-.37.11-.16.14-.39.35-.54.08-.05.15-.13.25-.09.03.01.07,0,.08-.05.02-.08.06-.1.1-.11.06-.02.13-.03.19,0,.14.04.29-.01.41-.06.08-.03.13-.05.05-.14-.02-.04.03-.11.09-.08.1.06.21.04.29.01.17-.06.32-.17.47-.22.11-.04.22-.06.33-.03.02,0,.04-.04.05-.07l.11-.04c.15-.05.26-.14.38-.14,0-.1.04-.14.17-.13.09-.01.19,0,.29.01.02-.08.03-.11.12-.07.03.01.08.02.14.05.02.04.07.07.09-.01,0-.05.03-.11.06-.17.04-.09.08-.17.19-.07v-.02c.04.06.1.08.09.13-.01.03,0,.07.01.09.04.11.15.09.23.04.08-.03.12-.07.15.01.03.09-.05.07-.11.09,0,.02-.03.04-.05.07,0,.07.06.03.09.04.08.02.15.09.25.08.05,0,.09.04.1.08.05.13.04.18-.05.12-.04-.03-.07-.05-.1-.01-.04.04,0,.07.04.11.03.01.04.06.1.06.05,0,.13-.03.17.06ZM769.67,411.85s-.05,0-.05,0v-.03s.04,0,.05.03ZM769.84,414.25s-.05.07-.08.1c-.02-.04-.05-.08-.05-.13.06-.02.1,0,.13.02ZM769.84,414.25h.02s-.01.02-.01.02v-.02ZM770.43,410.46c-.02-.06-.04-.06-.09-.04-.04.02-.03.04-.03.06,0,.02.05,0,.07,0l.04-.02ZM772.05,409h-.02s0-.01,0-.01t.03.01ZM772.56,409.51c-.04-.06-.1-.08-.06-.15.01-.03.08-.05.09-.03.1.01.09.06.07.12-.05-.08-.08-.02-.1.06ZM772.91,427.09s.03.01.02.04c0,0-.02,0-.03-.01v-.03ZM773.12,409.33s-.04.02-.05,0c0,.02.04.03.05,0ZM773.57,409.23s-.03-.01-.04-.04c-.01.03,0,.05.04.04ZM774.06,408.54s-.03-.01.01-.03v.02s-.01,0-.01,0ZM774.3,417.2s.05,0,.05,0v.02s-.04,0-.06,0v-.03ZM774.34,414.4h-.02s0,.06.02.05.02,0,.01-.03v-.02ZM774.35,417.66h.02s0,.01,0,.01c0,.02-.01.03-.02,0v-.02ZM774.55,415.1h-.02s-.02.02-.03,0c0,0,0-.02.01-.03.02,0,.03.01.04.03ZM774.76,412.75s.02.06-.01.1c-.06.02-.09-.04-.09-.06-.02-.04-.04-.11.02-.13.05,0,.07.05.08.09ZM775.05,410.54h-.02s.02,0,.02,0ZM775.11,411.05h.02s0,.01.02.03h-.02s-.03,0-.02-.03Z"/>
    <path class="cls-3" d="M793.63,411.34s.02.04,0,.05c-.06.04-.11.09-.19.02l.02-.08s-.03-.01-.04.02l.02.06c-.03.06-.02.13,0,.17.03.09.09.16.11.23l.04.11c.04.11.07.19.03.33-.03.06-.02.13.03.16.11.03.08.14.12.2.15.28.11.56.11.88-.02.13-.05.26,0,.39.02.06.06.1.11.15.07.05.01.09-.02.13-.07.07-.16.16-.18.29-.01.1-.02.2.11.3.04.03.08.07.08.09.04.11-.01.22-.15.32,0,.02-.03.06-.06.04-.05,0-.13.05-.05.07.06.03.1.06.11.1.03.08-.06.17-.11.21-.12.12-.07.2.01.29-.12.12-.1.26-.06.41.02.11,0,.17-.14.2-.02,0-.05,0-.07,0-.08.03-.09.13-.06.22t.04.04c.05.13,0,.26-.02.39-.04-.03-.04-.11-.1-.08,0,0-.03.04-.03.06.02.06.08.02.13.02-.02.08-.05.14-.11.21-.08.05-.17.13-.12.26,0,.02-.03.06-.07.07-.12.07-.16.21-.2.31-.01.1-.06.22-.19.19-.03-.01-.05,0-.06.02-.04.21-.28.27-.33.46-.05.07-.09.15-.15.13-.06-.03-.11-.03-.17,0-.08.03-.14.15-.18.24-.16.28-.37.5-.67.66-.31.14-.55.4-.83.55,0,0-.01.03-.03.04-.18.09-.27.32-.51.38-.19.07-.41.2-.57.36h-.02c-.13.05-.33-.04-.39-.19-.11-.22-.2-.46-.37-.66.03-.06.03-.11.02-.13-.03-.08-.15-.14-.22-.21-.06-.03-.05-.08-.05-.13-.02-.11-.03-.21-.07-.31-.06-.15-.15-.28-.25-.41-.04-.03-.08-.07-.06-.1.15-.13.07-.32.09-.47.03-.06.04-.09.07-.12.14-.08.16-.23.21-.34.01-.1.03-.18.14-.2.16-.35.52-.53.68-.88.04-.14.14-.27.28-.35.08-.05.13-.1.16-.16.05-.12.13-.17.24-.21.19-.07.25-.17.23-.35-.09-.23,0-.46.01-.68.04-.35.1-.71.2-1.07.08-.17.01-.42-.08-.6-.12-.32-.14-.62-.13-.92.03-.25-.06-.48-.03-.74,0-.05-.03-.08-.07-.12-.08-.09-.09-.18-.11-.3,0-.05-.02-.11-.04-.16-.04-.11-.1-.2-.22-.28-.04-.03-.09-.04-.09-.11l-.03-.08c-.03-.08-.11-.15-.21-.19-.1-.28-.44-.27-.58-.51-.04-.05-.21.03-.2-.09-.25-.08-.38-.32-.62-.42-.05,0-.06-.03-.07-.07-.07-.07-.16-.16-.24-.05-.18-.1-.38-.12-.55-.25-.15-.14-.38-.17-.56-.13-.12,0-.18.02-.3-.1-.13-.15-.3-.15-.5-.03q-.06.02-.08-.02s-.03-.01-.03-.01c-.09-.23-.32-.14-.48-.25,0,.05-.05.07-.07.07-.11.04-.22-.14-.32-.07-.23-.16-.48-.06-.71-.15-.07-.05-.03.04-.02.08s.05.08-.01.1c-.04.02-.06-.03-.07-.05-.12-.12-.2-.29-.36-.37-.04-.06-.08-.09-.15-.07-.11.04-.12.14-.07.2.07,0,.14,0,.2.07-.11.09-.14.2-.12.33l-.11.04c-.05.19-.12.41-.4.37-.07,0-.09.08-.1.13.01.29-.1.5-.33.66-.06.02-.06.17-.23.11h-.02c-.06.03-.13.18-.16.29l.02.04c.02.19-.17.19-.26.27-.06.04-.14.08-.13.17,0,.07-.02.13-.07.15-.16.08-.19.21-.12.38.06.17.01.36.06.54.03.08-.02.13-.1.18-.08.05-.03.11,0,.17h.02c-.04.08-.08.17-.12.3-.02,0-.06.1-.05.12.04.03.07.07.08.09.06.15-.05.26-.07.39-.02.15.08.28.04.44,0,.19-.04.35-.08.49,0,.05.02.06.06.1h-.03c.09.05.15.12.17.19.04.11.05.2.04.3-.02.08-.01.1.01.16.16.23.28.48.39.72.05.06.07.12.15.14.14.04.19.19.23.3,0,.07.01.16.04.23.04.11.09.18.17.27.04.03.04.11.06.15.08.02.14.04.16.16l.02.06c.04.11.12,0,.2-.05-.01.03,0,.05,0,.07.08.21.28.28.37.47.09.11.2.14.34.19,0,.05-.01.1.03.08.03.01.04-.02.03-.04.32.2.68.33.91.62.06.1.2.07.26-.02.1-.11.15-.06.23.04.08.09.15.07.22.01.08.02.18.03.27.02.13-.05.23-.09.34.02.02.04.09.04.12,0,.08-.03.15.01.15.09.02.04,0,.07.02.11.02.06.09.11.18.15.15.07.22.21.33.31.03.01.07.05.1.08.06.03.11.03.08.16,0,.07,0,.14.04.23.03.08.09.18.19.24-.02.08-.15.18,0,.27.07.05,0,.12,0,.17-.04.09.03.13.11.15.04.04.1.06.07.12-.01.1-.06.22.07.31v.02c.06.13-.03.28.03.33l.25.22s.03.01.03.01c.03.09-.06.17-.05.26-.08.1-.19.14-.32.19-.11.04-.23.09-.34.18-.02,0-.04-.06-.03-.08-.33.1-.66.05-.99.08l-.04.02c-.13-.17-.33-.1-.49-.08-.29.01-.58-.12-.83.04-.04.02-.08-.02-.11-.03-.1-.08-.2-.09-.33-.04-.08.03-.19,0-.22-.09-.05-.08-.12-.07-.19-.05-.01.03-.05.07-.07.07-.08.03-.15-.02-.25-.03-.13-.02-.25-.15-.4-.04h-.02c-.06.03-.13-.02-.2-.06-.15-.14-.34-.21-.55-.23-.25-.03-.45-.1-.64-.29-.12-.12-.29-.2-.43-.3-.07-.05-.1-.06-.16-.04l-.04.02c-.14-.17-.37-.15-.48-.31-.22-.26-.47-.48-.63-.78-.07-.12-.17-.2-.29-.25-.25-.1-.44-.27-.48-.52-.06-.17-.26-.24-.22-.47,0,0-.04-.06-.1-.08-.03-.01-.08-.02-.1-.06l-.03-.08c-.05-.15-.23-.18-.37-.27-.04-.05-.09-.11-.11-.17-.03-.08-.03-.16-.04-.25,0-.07.03-.18-.12-.12-.04-.11-.12-.2-.1-.33.03-.11.04-.21-.12-.25-.09-.04-.09-.11-.07-.19.02-.08.02-.13-.08-.16-.12,0-.16-.11-.13-.22.06-.1.06-.17,0-.26v.02s-.07-.09-.1-.15c-.06-.17-.03-.28-.13-.34-.04-.06-.08-.09-.11-.16v-.02c-.07-.05-.1-.11-.11-.15-.04-.11-.04-.23.06-.36.06-.04,0-.12-.01-.16-.08-.14-.11-.3-.07-.46.04-.14-.04-.25-.07-.38.01-.03.05-.07-.02-.06l.02.06c-.07-.05-.16-.11-.1-.2.05-.12-.03-.21-.02-.31.16-.23.15-.32.02-.52-.02-.04-.03-.08-.07-.12l-.03-.09s.02,0,.04-.02c.19-.07.02-.39.27-.44.07,0,.06-.04.06-.1,0-.14,0-.26.11-.43.13-.1.1-.3.08-.49,0-.07-.05-.13,0-.19.13-.17.02-.47.27-.58l.03-.11c-.03-.21,0-.39.21-.54,0,0,0-.02,0-.07.07,0,.15.02.07-.12-.02-.04,0-.05.01-.1.02-.27.05-.31.31-.41l.08-.03c-.09-.06-.2-.07-.24-.18.1-.11.28-.15.36-.33.02-.08.13-.1.22-.06.05,0,.14,0,.13-.05-.03-.13.13-.22.12-.26-.08-.14.09-.13.11-.21.02,0,.04-.02.06-.04-.01-.09,0-.19.06-.22.04-.02.09-.01.17.08.05,0,.08-.03.11-.09.05-.19.22-.25.35-.35.12-.07.27-.12.23-.28.12-.07.15-.25.32-.31l.2-.1c.09-.08.12-.26.31-.21.06.03.06-.04.08-.1.02-.15.09-.15.22-.13l-.02-.06c0-.05.03-.18.12-.07.08.09.14.05.23.04,0,.07-.02.13.04.18.06.03.08-.03.11-.09.05-.12.15-.1.26-.07.03.01.05,0,.04.04-.11.21.08.14.14.19.03.01.05,0,.06-.04,0-.07.02-.13.12-.07.06.03.12.08.06.17-.08.1-.02.13.07.12.11-.04.21-.08.34-.06.02,0,.05,0,.06-.02.02-.08.07-.12.14-.15.11-.04.21-.03.28-.08.03-.04.05-.07.03-.11,0,0-.03-.01-.05,0-.11-.03-.17-.08-.21-.16-.02-.06,0-.14.06-.24.03-.06.1-.11.16-.16,0,.05.01.09.03.13,0,.05.03.08.07.07s.03-.04.05-.07c.05-.07.02-.2.07-.2.12.08.17-.06.24-.07l.08-.03c.06-.02.06-.04.03-.18.05,0,.07,0,.11.03.15.09.25.03.36-.08.06.1.18-.02.26.05.03.01.04-.04.04-.09-.02-.04-.06-.1,0-.12.06-.02.08.02.12.07.02.04.04.04.07.07l.04-.02c.11-.04.19,0,.3-.09,0,0,.02,0,.05,0,.32.08.33.1.51-.05h.02c.08-.04.12.04.17.05.36-.01.64.17.92.33.03.01.08.07.1.06.2-.05.37.08.54.14.24.13.5.12.74.11.08.02.16-.01.24,0,.24.2.5.11.73.02.08-.03.12,0,.19.05.06.1.19.17.31.18.1.01.17.08.17.13,0,.05.01.09.03.13.03.08.07.12.18.15,0,.02,0,.05-.02.08.11-.02.23-.09.37-.04.09.04.23.03.2.22-.01.03.02.06.02.06.21,0,.28.28.52.22,0,.02.04.03.07.05.16.04.24.13.3.27-.01.1.02.19.04.25.02.06.05.13.11.17.1.06.21,0,.34.07,0,0,.02,0,.03.01.02.04.09.06.06.1-.04.09-.1,0-.13-.02-.13.03-.1.13-.04.16.13.15.18.29.25.46t0,.05c.03.08.13.1.19.17.12,0,.16.11.17.2-.02.13.14.31-.03.45,0,0-.01.03,0,.05.04.06.07.12.09.18.05.13.05.27.08.4l.05.13c.06.15.15.28.33.31-.02,0-.08.03-.07.07l.03.08c.05.13.17.25.29.25.14,0,.1.01.06.1-.09.08-.04.16.05.2.24.06.32.27.47.43ZM776.66,413.25h.03s-.02.02-.02.02v-.02ZM777.02,415.31l-.04.09s.02-.08.04-.09ZM777,415.44l.13.03s.01.09,0,.14c0,0,0,.05-.03.06-.01.03-.05,0-.06-.03-.04-.06-.05-.13-.05-.2ZM777.24,410.35h-.02s0-.01,0-.01l.04-.02s0,.02-.01.03ZM777.64,409.52s.04.03.04.05c-.03-.01-.06-.03-.07-.05,0-.02.01-.03.02,0ZM778.28,408.87s-.05,0-.06.02l-.04.02s.03.01.05,0c.03.01.06-.02.05-.04ZM778.48,408.24s-.04-.04,0-.05v.02s0,.03,0,.03ZM779.28,407.21l.05-.07s.05,0,.07.05c0,.02-.01.03-.03.04-.04.02-.07,0-.08-.02ZM779.64,406.81s-.03.04-.05.04l-.02-.04s.01-.03.02,0t.05,0ZM779.99,406.44h-.02s0-.01.01-.02v.02ZM780.52,406.58s-.02-.04-.04-.06c0-.02-.06-.03-.08-.02,0,.02.04.06.07.07,0,.02.03.01.05,0ZM780.56,406.16v-.02s-.02-.02-.02-.02c.02,0,.03.01.02.04ZM781.03,406.13s-.04-.04-.04-.04l.02.06s.02.04.05,0c.02,0,0-.02-.04-.03ZM781.4,405.89c-.07-.05-.1-.08-.11.02-.04-.04-.07-.07-.08-.14,0-.02.03-.04.06-.04.08.02.17.06.13.17ZM781.4,405.89s-.06.05-.09.08l-.02-.04.11-.04ZM782.44,405.72s-.03-.01-.04-.03c.01-.03.04-.04.06-.04.01-.03.04-.02.05,0,0,.05-.02.08-.07.07ZM782.54,406.94c.06-.02.08-.03.09-.08-.02-.04-.04-.03-.07-.05-.04.02-.06.02-.05.05,0,.05.02.06.03.08ZM782.53,406.6s.07,0,.09-.01h.02s-.03-.02-.03-.02l-.08.03ZM782.92,406.46c-.08-.02-.08.03-.1.06l-.15.06s.03.01.04.04c.03.08.02.19.09.23.07-.07,0-.19.03-.3v-.02s.08.04.11-.02l-.02-.04ZM783.1,407.28s-.02-.04-.05-.05c0,0-.05,0-.04.02-.1.13-.12.31-.12.46,0,.07.07.12.16.11.06-.02.07-.07.02-.15l-.03-.08c-.03-.08-.03-.16.04-.21l.02-.08ZM783.25,417.16h.03c-.02.09-.07.09-.12.13v.03s-.02-.02,0-.05c0-.07.03-.11.1-.11ZM783.24,408.8s-.02-.04-.02-.06c.03.01.04.03.04.05.03.01.04.04,0,.05l-.02-.04ZM783.41,404.87s.01-.03.01-.03c.03.01.04.05.04.05-.02,0-.03-.01-.06-.03ZM783.52,417.56s-.06-.03-.07-.05l.07.05ZM783.47,404.92s.08.07.1.13c-.04.04-.05.07-.08-.02,0-.02,0-.07-.02-.11ZM783.59,405.04v.02s-.01,0-.01,0v-.02s.01,0,.01,0ZM783.63,408.1s-.03-.01-.03-.01c0,0-.02,0-.01.03h.02s.02-.02.02-.02ZM784.53,408.44h-.02s.03.02.03.02v-.02ZM786.59,418.91h-.02s.05-.06.06-.09l-.04.09ZM786.98,419.63s.05,0,.05,0v.02s-.02-.01-.05-.03ZM789.01,405.7s-.04.04-.06.05c.02,0,.05,0,.06-.05ZM789.41,405.53s-.03-.01-.05,0c0-.05.01-.1.03-.11.01-.03.04-.02.05,0,.02.06-.02.08-.03.11ZM789.48,405.91s0-.02-.03-.01c0,.02-.01.03-.01.03h.02s.02-.02.02-.02ZM789.82,405.98s.03-.06.07-.07c.03.01.07.05.07.07-.02,0-.03.04-.06.04-.04.02-.09.01-.09-.04ZM790.16,405.99h.02s.02-.02.02-.02c-.02,0-.01.03-.01.03-.02,0-.03-.01-.03-.01ZM790.52,406.37s-.02-.11.04-.14c.02,0,.04.03.07.05-.03.04-.03.11-.07.12-.02,0-.04-.03-.04-.03ZM792.1,408.72v.02c.07-.09-.01-.11-.03-.16l-.02-.04c-.02.08-.04.14.04.18ZM793.09,410.48c-.05,0-.1-.01-.13-.02.03.01.1.01.13.02ZM793.7,411.77h.02s0,0,0,.01c-.01.03-.02,0-.03-.01ZM793.88,414.97h-.05c-.06.02-.05.06-.03.1.06-.02.11-.04.08-.1ZM793.88,414.44s.01-.03,0-.05v.02s.02.02.02.04h-.03Z"/>
    <path class="cls-3" d="M795.05,402.45s-.03.06-.01.1c.03.13,0,.26.05.39.02.06.07.12.14.17.04.06.03.09.03.14-.01.1-.01.22.02.31.02.06.06.1.13.15.07.05.1.08.05.13-.05.07-.01.1.03.16.1.08.14.19.06.29-.03.06-.04.09,0,.12l.05.08c.05.13-.09.2-.18.29-.08.05-.15.11-.24.14-.82.38-1.68.73-2.52,1.02-.4.15-.67,0-.78-.29-.02-.06-.05-.13-.05-.2-.03-.33-.12-.63-.23-.93-.1-.28-.23-.56-.41-.84l-.06-.15c-.04-.11-.02-.11.06-.17.17-.11.36-.21.55-.28l.21-.08c.17-.06.34-.13.5-.21.37-.16.79-.27,1.17-.42.21-.1.39-.24.62-.28.22-.06.27-.05.38.17,0,.05.01.09.05.08.17,0,.19.12.21.24.04-.02.06-.02.08-.05.04-.02.04-.09.1-.06ZM794.62,402.25s.02,0,.01-.03c.06-.02,0-.12.08-.1.02,0,.06.03.04.04.02.11-.04.09-.13.1ZM794.93,402.06s.05-.05.09-.08c0,.07-.01.1-.09.08ZM798.84,400.74c.09.23.18.49.26.75.1.4.18.8.31,1.21.16.5.32.99.5,1.48.09.23.17.45.27.67l.07.19c.28.86.57,1.72.85,2.6.17.47.34.91.49,1.39.11.42.25.8.38,1.21l.05.15c.23.61.46,1.23.64,1.84l.27.72c.09.23.17.47.25.73l.13.36c.06.17.14.36.16.55.02.06.07.12.12.2.04.04.04.06.06.1.02.04.02.11.02.19,0,.21-.04.28-.23.35-.66.25-1.31.49-1.98.72-.13.05-.29.06-.43.09-.19.07-.33-.04-.47-.16-.07-.07-.07-.12-.05-.2.05-.26.04-.52-.05-.78-.03-.08-.08-.16-.14-.26-.03-.01-.04-.06-.04-.11-.05-.27-.15-.52-.24-.78-.16-.42-.34-.84-.52-1.26l-.34-.91c-.23-.62-.45-1.21-.67-1.8l-.44-1.19c-.15-.4-.3-.81-.46-1.18-.09-.18-.15-.33-.27-.46-.02-.06-.06-.1-.08-.16-.02-.06-.03-.13-.05-.2-.02-.04,0-.09-.03-.13-.06-.15-.15-.28-.23-.42-.04-.04-.07-.05-.08-.09-.05-.27-.24-.51-.29-.78l-.02-.06c-.04-.11-.1-.2-.19-.31-.04-.06-.11-.1-.02-.19.04-.09,0-.14-.04-.18-.06-.1-.09-.18-.13-.29-.05-.13-.1-.28-.13-.41,0-.09-.04-.18-.07-.26-.07-.19-.18-.34-.3-.49-.07-.07-.11-.17-.14-.24-.02-.26-.17-.47-.16-.74.03-.11-.07-.19-.09-.3-.02-.18.02-.27.21-.27.11-.02.21-.03.29-.06.04-.02.1-.06.16-.08.08-.03.17-.06.25-.12.05-.05.14-.08.2-.1.21-.08.45-.09.65-.12.11-.02.2-.05.3-.09.13-.05.27-.12.38-.21.11-.09.14-.03.24-.02.05,0,.1,0,.16-.01.04-.02.08-.05.09-.15.02-.08.07-.15.13-.05.07.12.14.12.24.06l.08-.05c.06-.02.13.02.18.15ZM798.02,400.76s-.03.04-.06.04c0-.02,0-.05,0-.07.01-.03.02-.08.06-.09.01-.03.02,0,.03.01,0,.05-.02.08-.03.11ZM803.68,400.96l.07.19c.13.34.07.38-.34.51l-.06.02c-.65.27-1.34.48-2,.72-.28.1-.54.18-.83.12-.15-.02-.22-.06-.29-.18-.27-.48-.54-.98-.78-1.5l-.08-.14s-.04-.06-.05-.08c-.06-.15,0-.31.14-.39.08-.03.17-.11.23-.16.09-.08.17-.13.28-.15.42-.11.82-.26,1.23-.39.4-.15.81-.3,1.24-.49.3-.11.36-.06.48.25.21.57.5,1.09.74,1.66ZM803.14,411.14s0,.1-.05.12c-.08.03-.21-.04-.21-.11-.02-.06-.01-.09.04-.09.08.02.2-.05.22.08ZM803.02,406.64c.05.08,0,.12-.07.15-.01.03-.07,0-.06-.03,0-.07-.02-.11.07-.15,0,0,.05,0,.06.03ZM803.67,414.18l.02.04s-.04.02-.07,0c0,0,.01-.03,0-.05.02,0,.04-.02.05,0Z"/>
    <path class="cls-3" d="M810.68,404.77c-.04.35-.04.72.09,1.08l.02.06c.03.09.02.19,0,.26-.05.19-.13.41-.04.6l.02.04c.02.06-.02.13-.05.19-.07.15-.06.29-.02.47.05.2.06.41.04.61-.02.27.11.49.08.74,0,.05.03.14.02.19-.03.3.02.57,0,.84-.02.15-.02.35.02.5.04.18-.03.37-.06.55,0,.02-.02.08-.01.1.18.34.05.71.11,1.07.03.14,0,.26.11.37,0,.19-.02.2-.17.26-.04.02-.17.01-.14.08.06.17-.06.17-.15.18-.35.08-.72.22-1.03.34-.08.03-.14.08-.23.11-.04.02-.08.03-.17,0-.03-.01-.08.03-.08.03l-.04.02c-.15.06-.2.24-.3.23-.13-.02-.24,0-.33.1,0,.02-.03.06-.06.04-.31-.05-.59.1-.87.18-.13.03-.25-.03-.37.04-.06.02-.15-.14-.11-.23.09-.15.08-.3.1-.45.06-.6.03-1.22.03-1.85-.02-.11-.02-.26,0-.39.04-.4,0-.75,0-1.14,0-.41.1-.83.06-1.25,0-.75.03-1.54,0-2.3-.01-.36,0-.72-.05-1.09,0-.7.06-1.4-.05-2.08-.02-.26,0-.51-.15-.72-.02-.06.02-.08.03-.11.19-.26.12-.53.13-.82.01-.29-.06-.56,0-.84.04-.16-.09-.3-.04-.49,0-.09-.05-.2.03-.3,0,0,.03-.04.03-.06,0-.02.01-.03,0-.05-.03-.08-.19-.12-.1-.2.1-.11.02-.2-.01-.29.01-.03.03-.04.02-.08-.03-.47-.05-.97.15-1.41q.07-.15.19-.07s.04.05.07.07c.19.12.4.17.53.33,0,.02.03.01.05,0,.13-.05.19-.02.22.06.02.04.02.11.04.18-.01.03,0,.07,0,.09.03.08.08.14.21.19.09.04.07.19.17.25.08.02.19.05.2.14-.03.06-.01.1,0,.14.05.13.2.14.34.19.05,0,.09,0,.12,0,0,0,.03.01.04.03,0,.02-.01.03-.04.02-.04.02-.07,0-.09.01.02.04.04.11.11.1.26,0,.4.16.51.34.11.1.18.1.3.03-.02.13.02.26.06.41,0,.02-.01.03,0,.05.04.11.16.18.28.28.04.03.05.08.07.12.02.06.03.16,0,.21h.02c-.07.26.01.54-.01.79-.02.08-.02.15-.04.21-.2.31-.1.64-.07.97.05.2.09.38.08.6-.03.25.05.51.14.77.04.11.03.21,0,.34ZM807.42,397.89s.03-.06.05-.07v.02s0,.03-.05.04ZM822.23,408.15c.09.23-.08.42-.31.53-.11.04-.18.09-.29.13-.08.03-.2.05-.31.02-.08-.02-.14.03-.18.09-.08.05-.17.12-.3.16-.03-.01-.06-.03-.08-.02-.17.06-.33.08-.48.13-.06.02-.15.06-.2.12-.32,0-.55.14-.86.15-.07,0-.14,0-.21.03l-.06.02c-.11.04-.21.03-.33.03-.05,0-.13-.02-.16.04-.07.15-.17.13-.22-.01-.04-.05-.09-.06-.14-.04-.16.08-.16.01-.16-.11,0-.05-.05-.08-.11-.1-.22-.08-.4-.24-.47-.48-.05-.13-.09-.18-.24-.18-.12,0-.18-.03-.2-.07-.02-.06,0-.12.02-.2.05-.12.02-.13-.06-.1-.1.06-.11-.1-.17-.06-.16.08-.27-.26-.42-.04-.15-.02-.31.02-.44.04l-.34.13c-.11.04-.21.08-.33.15-.02,0-.06.04-.08.03-.12-.05-.2-.07-.28-.04-.13.05-.2.17-.25.31l-.06.02s.02,0,.01-.03v-.02s-.02.03-.01.05c-.22-.06-.41.06-.61.13-.09.01-.19-.05-.28.03-.02,0-.08-.02-.1-.01-.04.09-.1.11-.15.13-.13.05-.27,0-.36.01-.03-.01-.04.02-.08.05,0,.02-.06.04,0,.05t0-.05c.06.03.1.08.06.15-.05.07-.09.08-.16.03-.12-.08-.25-.03-.36.01-.13.05-.26.03-.29-.13-.02-.04-.05-.08-.09-.11-.13-.02-.16-.11-.2-.26-.03-.16-.08-.14.04-.28.06-.02.05-.05.04-.09-.02-.06.02-.15.01-.22q-.03-.28.19-.58c.06-.04.04-.09,0-.12-.08-.09-.14-.19-.18-.29-.1-.28-.08-.55-.09-.83.13-.1.16-.21.16-.35,0-.14.06-.22.17-.26h.02c.11-.05.17-.14.19-.2.05-.12.12-.12.23-.16.23-.09.45-.15.69-.09h.02c.38-.22.8-.14,1.19-.26.04-.02.1.01.12-.07.01-.03-.05-.08-.08-.09-.33-.1-.5-.37-.69-.61-.19-.24-.33-.5-.56-.73-.29-.33-.6-.64-.84-1.02-.19-.31-.47-.6-.67-.88-.19-.32-.38-.63-.63-.9-.24-.25-.49-.47-.73-.72-.16-.18-.37-.27-.48-.5-.02-.06-.07-.05-.1,0-.1.06-.16.01-.13-.1.02-.08,0-.12-.01-.16-.02-.06-.08-.09-.16-.11-.07,0-.12,0-.18.04-.02,0-.04.02-.07,0s0-.05,0-.1c.07-.15.09-.23.06-.29-.02-.06-.09-.11-.19-.17-.07-.07-.12-.12-.12-.25l-.03-.08c-.02-.06-.06-.1-.15-.14-.15-.07-.23-.16-.27-.26-.04-.11-.04-.23-.05-.34q0-.17-.17-.08l-.04-.11s.04-.09,0-.07c0,0-.01.03,0,.07-.08.03-.07.15-.14.2.01-.03,0-.02-.02-.04-.03-.08.02-.15.03-.23.03-.06.02-.13.03-.18.03-.11,0-.17-.13-.15-.16.03-.17-.08-.28-.16-.03-.01,0-.07.03-.11q.18-.11.06-.29s.01-.1.03-.11c.47.02.93-.11,1.35-.26h.03s.08-.04.09-.07c.08.02.12.08.19-.02.14,0,.29,0,.42-.04.08-.1.17-.19.31-.14.07,0,.14-.03.19-.07.19-.07.39-.05.54.14.27.33.63.59.91.89.08.09.19.17.27.26.37.39.75.78,1.12,1.2.25.29.47.67.76.95.04.03.06.1.09.11.31.17.52.43.76.68.04.03.06.1.15.09.09-.01.06.03.01.09-.04.04-.03.06,0,.05.19-.02.12.2.25.22.14,0,.19.05.27.14.1.13.15.28.28.35.04-.02.07-.07.07-.14,0,0-.02-.04.04-.04,0,0,.03.01.04.03l.07.19s.02.04.02.06c.02.04.04.11.11.1.07,0,.09.06.06.1-.04.04-.04.09-.03.11.02.06.08.09.17.13.06.03.13.1.19.17.12.12.21.31.45.29-.02,0-.06.05-.07.07-.09.08-.07.15.03.16.24.06.38.24.59.36.1.08.13.29.33.31.02,0,.03.01.02.06-.03.06-.01.1,0,.14.03.08.12.12.21.19.04-.04.07-.2.14,0,.02.04.07.12.07.19.02.06-.03.04-.08.03.24.2.47.43.59.75,0,.02.03.08.05.08.17-.06.21.09.24.18l.02.04c.08.21.3.28.35.47.14,0,.23.03.21.18,0,.05.01.09.02.11.06.15.16.23.3.28,0,.02,0,.07-.01.1-.04.09-.07.12-.06.17,0,.02.08.02.18.03.08-.03.1.01.12.08.03.08.01.17.02.24,0,.07.02.11.11.15.17.08.25.27.31.44.11.22.25.41.44.59.18.17.35.35.62.42.06.15.18.22.24.37ZM808.03,396.21h-.02s0-.01,0-.01h.02s0,.01,0,.01ZM808.02,396.51s-.02,0-.01.03t.01-.03ZM808.03,396.48v.02s-.01,0-.01,0c0,0,.02,0,.01-.03ZM808.76,396.23s.01-.03,0-.05c.04-.02.08-.03.1.01,0,.02-.04.04-.06.04s-.04.02-.05,0ZM810.02,399.86s-.02,0-.05,0h.02l.02-.02v.02ZM810.16,399.98v.03s-.02-.02-.02-.02h.02ZM810.65,400.43v.02s-.01,0-.01,0v-.03ZM811.75,409s-.03.04-.03.06c-.02,0-.03-.01-.03-.01,0-.02,0-.05.03-.06,0,0,0,.02.03.01ZM811.92,406.21s.02,0,.05,0c0,.02-.01.03-.03.04t-.04-.03s0-.02.02,0ZM811.99,408.28s-.04.02-.05,0c0-.02.02,0,.05,0ZM816.38,408.45v-.03s.02.02,0,.03ZM817.26,408.94h-.02s0-.01,0-.01t.03.01ZM818.3,403.38h.02s-.03-.02-.04,0h.02ZM818.44,403.62s-.03-.01-.02,0t.03.01v-.02Z"/>
    <path class="cls-3" d="M819.59,393.26s-.03.06-.01.1c.03.13,0,.26.05.39.02.06.07.12.13.17.04.06.03.09.03.14,0,.1-.01.22.02.31.02.06.06.1.13.15.07.05.1.08.05.13-.05.07-.01.1.03.16.1.08.14.19.06.29-.03.06-.04.09,0,.12l.05.08c.05.13-.09.2-.18.29-.08.05-.15.11-.24.14-.82.38-1.68.73-2.52,1.02-.4.15-.67,0-.78-.29-.02-.06-.05-.13-.05-.2-.03-.33-.12-.63-.23-.93-.1-.28-.24-.56-.41-.84l-.06-.15c-.04-.11-.02-.11.06-.17.17-.11.36-.21.55-.28l.21-.08c.17-.06.34-.13.5-.21.37-.16.79-.27,1.17-.42.2-.1.39-.24.62-.28.22-.06.27-.05.38.17,0,.05.01.09.05.08.17,0,.19.12.21.24.04-.02.06-.02.08-.05.04-.02.04-.09.1-.06ZM819.15,393.06s.02,0,.01-.03c.06-.02,0-.12.08-.1.02,0,.06.03.04.04.02.11-.04.09-.13.1ZM819.47,392.87s.05-.05.09-.08c0,.07-.01.1-.09.08ZM823.37,391.56c.09.23.18.49.26.75.1.4.18.8.31,1.21.16.5.32.99.5,1.48.09.23.17.45.27.67l.07.19c.28.86.57,1.72.85,2.6.17.47.34.91.49,1.39.11.42.25.8.38,1.21l.06.15c.23.61.46,1.23.64,1.84l.27.72c.09.23.17.47.25.73l.13.36c.06.17.13.36.16.55.02.06.07.12.12.2.04.04.04.06.06.1.02.04.02.11.02.19,0,.21-.04.28-.23.35-.66.25-1.31.49-1.98.72-.13.05-.29.06-.43.09-.19.07-.33-.04-.47-.16-.07-.07-.07-.12-.05-.2.05-.26.04-.52-.05-.78-.03-.08-.08-.16-.15-.26-.03-.01-.04-.06-.04-.11-.05-.27-.15-.52-.24-.78-.16-.42-.34-.84-.52-1.26l-.34-.91c-.23-.62-.45-1.21-.67-1.8l-.44-1.19c-.15-.4-.3-.81-.47-1.18-.09-.18-.15-.33-.27-.46-.02-.06-.06-.1-.08-.16-.02-.06-.03-.13-.05-.2-.02-.04,0-.09-.03-.13-.06-.15-.15-.28-.23-.42-.04-.04-.07-.05-.08-.09-.05-.27-.24-.51-.29-.78l-.02-.06c-.04-.11-.1-.2-.19-.31-.04-.06-.11-.1-.02-.19.04-.09,0-.14-.04-.18-.06-.1-.09-.18-.13-.29-.05-.13-.1-.28-.13-.41,0-.09-.04-.18-.07-.26-.07-.19-.18-.34-.3-.49-.07-.07-.11-.17-.14-.24-.02-.26-.17-.47-.16-.74.03-.11-.07-.19-.09-.3-.02-.18.02-.27.21-.27.11-.02.21-.03.29-.06.04-.02.1-.06.16-.08.08-.03.17-.06.25-.12.06-.05.14-.08.21-.1.21-.08.45-.09.65-.12.11-.02.2-.05.3-.09.13-.05.27-.12.38-.21s.13-.03.24-.02c.05,0,.1,0,.16-.01.04-.02.08-.05.09-.15.02-.08.07-.15.13-.05.07.12.14.12.24.06l.08-.05c.06-.02.13.02.18.15ZM822.55,391.57s-.03.04-.06.04c0-.02,0-.05,0-.07.01-.03.02-.08.06-.09.01-.03.02,0,.03.01,0,.05-.02.08-.03.11ZM828.21,391.77l.07.19c.13.34.07.38-.34.51l-.06.02c-.65.27-1.34.48-2,.72-.28.1-.54.18-.83.12-.15-.02-.22-.06-.29-.18-.28-.48-.54-.98-.78-1.5l-.08-.14s-.04-.06-.05-.08c-.05-.15,0-.31.14-.39.08-.03.17-.11.23-.16.09-.08.17-.13.28-.15.42-.11.82-.26,1.23-.39.4-.15.8-.3,1.24-.49.3-.11.36-.06.48.25.21.57.5,1.09.74,1.66ZM827.67,401.95s-.01.1-.05.12c-.08.03-.21-.04-.21-.11-.02-.06-.01-.09.04-.09.08.02.2-.05.23.08ZM827.56,397.45c.05.08,0,.12-.07.15-.01.03-.07,0-.06-.03,0-.07-.02-.11.07-.15,0,0,.05,0,.06.03ZM828.21,404.99l.02.04s-.04.02-.07,0c0,0,.01-.03,0-.05.02,0,.04-.02.05,0Z"/>
  </g>
  <g>
    <path class="cls-3" d="M584.35,340.99c-.79,0-1.58.03-2.36.08l-9.97-31.05c-1.07-3.34-4.18-5.61-7.69-5.61h-26.21c-3.49,0-6.43,2.86-6.37,6.35.06,3.38,2.83,6.11,6.23,6.11h23.17l7.77,24.22-88.13-.1h0c-17.94,0-32.52,14.63-32.46,32.58.07,17.9,14.56,32.33,32.46,32.33,15.76,0,28.94-11.3,31.85-26.22h39.87c2.91,14.93,16.09,26.22,31.85,26.22,17.9,0,32.39-14.43,32.46-32.33.07-17.95-14.52-32.58-32.46-32.58ZM506.35,353.48l52.39.06c-3.07,3.94-5.25,8.6-6.24,13.68h-39.87c-1-5.11-3.19-9.79-6.29-13.74ZM573.85,356.44l3.46,10.78h-11.95c1.48-4.51,4.53-8.32,8.49-10.78ZM479.7,393.42c-10.14-.54-18.34-8.74-18.88-18.88-.61-11.52,8.58-21.09,19.97-21.09s20,8.97,20,20-9.57,20.58-21.09,19.97ZM585.43,393.42c-9.31.49-17.35-5.43-20.08-13.74h20.49s.08,0,.13,0c.09,0,.18,0,.27,0,.05,0,.11,0,.16-.01.14-.01.27-.03.4-.05.15-.03.3-.05.45-.09.01,0,.03,0,.04,0,.36-.08.71-.2,1.05-.35.01,0,.03-.01.04-.02.08-.03.16-.07.23-.11.03-.02.06-.03.09-.05.05-.03.11-.05.16-.08.05-.03.1-.05.14-.08.03-.02.07-.04.11-.06.06-.04.12-.08.18-.11.02-.01.04-.03.06-.04.07-.05.14-.09.2-.14.01,0,.03-.02.04-.03.07-.06.14-.11.21-.17,0,0,.02-.01.02-.02.07-.06.14-.12.2-.18,0,0,.01-.01.02-.02.06-.06.13-.12.19-.18,0,0,.02-.02.03-.03.06-.06.11-.12.17-.18.02-.02.03-.03.05-.05.05-.05.1-.11.14-.17.02-.03.04-.05.06-.08.04-.05.08-.09.11-.14.03-.04.06-.07.08-.11.03-.04.05-.08.08-.12.03-.05.07-.1.1-.14.02-.03.04-.06.06-.09.04-.06.08-.12.11-.18.01-.02.03-.04.03-.06.04-.07.08-.14.11-.21,0-.01.01-.03.02-.04.04-.08.08-.16.11-.23,0,0,0-.02.01-.03.04-.08.07-.16.11-.25,0,0,0-.02.01-.03.03-.08.06-.16.09-.25,0-.02,0-.03.02-.05.03-.08.05-.15.07-.23,0-.03.01-.05.02-.08.02-.07.04-.14.06-.2,0-.04.02-.08.03-.12.01-.05.03-.11.03-.16.01-.06.02-.12.03-.18,0-.03.01-.07.02-.11.01-.08.02-.17.03-.25,0-.01,0-.03,0-.04.05-.49.04-.99-.03-1.49,0-.03,0-.07-.01-.1,0-.03-.01-.07-.02-.1-.05-.3-.12-.59-.22-.88l-5.76-17.94h.52c10.37,1.13,18.39,10.22,17.79,21.01-.56,10.13-8.76,18.3-18.89,18.84h0Z"/>
    <path class="cls-2" d="M452.88,356.9c.14-.24.29-.48.44-.71-.08.11-.16.23-.24.36-.07.12-.14.24-.2.36h0Z"/>
    <path class="cls-2" d="M513.74,321.03c-2.91-1.83-6.76-.96-8.59,1.96l-26.37,41.94-10.96-6.69c-3.19,2.72-5.51,6.42-6.5,10.63l16.22,9.9c.05.03.11.06.16.09.06.03.13.07.19.11.06.03.13.06.19.1.07.03.14.07.2.1.06.03.13.05.19.08.07.03.14.06.21.08.06.02.13.04.19.06.07.03.15.05.22.07.06.02.13.03.19.05.08.02.15.04.22.06.06.01.13.02.2.03.07.01.15.03.22.04.08,0,.15.02.22.02.06,0,.13.02.19.02.12,0,.25.01.37.01h.05c.13,0,.25,0,.38-.01.03,0,.07,0,.1,0,.09,0,.19-.01.27-.03.04,0,.08-.01.12-.02.08-.01.17-.03.25-.04.05,0,.09-.02.14-.03.08-.02.16-.03.24-.05.05-.01.09-.03.14-.04.08-.02.15-.04.22-.06.05-.02.1-.03.14-.05.07-.03.14-.05.22-.08.05-.02.1-.04.15-.06.07-.03.14-.06.2-.08.05-.02.1-.05.15-.07.06-.03.13-.06.19-.09.05-.03.1-.05.15-.08.06-.03.12-.07.18-.1.05-.03.1-.06.16-.1.06-.03.11-.07.16-.11.05-.04.11-.08.16-.11.05-.04.1-.08.15-.11.05-.04.1-.08.15-.13.05-.04.09-.08.14-.12.05-.05.1-.09.15-.14.04-.04.09-.08.13-.13.05-.05.1-.1.14-.15.04-.05.08-.09.12-.14.05-.05.09-.11.14-.16.04-.05.08-.1.12-.15.04-.05.08-.11.12-.16.01-.02.03-.04.04-.06l10.79-15.63c.95-1.31,9.89-16.28,9.89-16.28l9.11-15.45c1.83-2.91.96-6.75-1.96-8.59h0Z"/>
  </g>
</svg>